<?xml version="1.0" standalone="no"?>
<!DOCTYPE svg PUBLIC "-//W3C//DTD SVG 20010904//EN"
 "http://www.w3.org/TR/2001/REC-SVG-20010904/DTD/svg10.dtd">
<svg version="1.0" xmlns="http://www.w3.org/2000/svg"
 width="600.000000pt" height="600.000000pt" viewBox="0 0 600.000000 600.000000"
 preserveAspectRatio="xMidYMid meet">
<metadata>
Created by potrace 1.15, written by Peter Selinger 2001-2017
</metadata>
<g transform="translate(0.000000,600.000000) scale(0.100000,-0.100000)"
fill="#736f07" stroke="none">
<path d="M2640 5985 c-584 -71 -1124 -306 -1580 -687 -486 -408 -837 -979
-986 -1604 -49 -207 -65 -352 -71 -619 -7 -338 15 -552 87 -828 312 -1205
1330 -2089 2570 -2232 202 -24 618 -16 804 14 728 118 1373 486 1844 1051 362
435 598 978 667 1535 63 508 -6 1054 -190 1506 -275 674 -764 1211 -1410 1550
-322 169 -655 269 -1040 314 -159 18 -544 18 -695 0z m870 -1960 l0 -515 515
0 515 0 0 -510 0 -510 -515 0 -515 0 0 -515 0 -515 -510 0 -510 0 0 503 c0
378 -3 506 -12 515 -9 9 -136 12 -510 12 -485 0 -498 0 -508 20 -7 13 -8 172
-4 510 l7 490 502 0 c376 0 504 3 513 12 9 9 12 137 12 515 l0 503 510 0 510
0 0 -515z"/>
</g>
</svg>
