<svg xmlns="http://www.w3.org/2000/svg" width="300" height="300" viewBox="0 0 300 300">
  <metadata><?xpacket begin="﻿" id="W5M0MpCehiHzreSzNTczkc9d"?>
<x:xmpmeta xmlns:x="adobe:ns:meta/" x:xmptk="Adobe XMP Core 5.6-c138 79.159824, 2016/09/14-01:09:01        ">
   <rdf:RDF xmlns:rdf="http://www.w3.org/1999/02/22-rdf-syntax-ns#">
      <rdf:Description rdf:about=""/>
   </rdf:RDF>
</x:xmpmeta>
                                                                                                    
                                                                                                    
                                                                                                    
                                                                                                    
                                                                                                    
                                                                                                    
                                                                                                    
                                                                                                    
                                                                                                    
                                                                                                    
                                                                                                    
                                                                                                    
                                                                                                    
                                                                                                    
                                                                                                    
                                                                                                    
                                                                                                    
                                                                                                    
                                                                                                    
                                                                                                    
                           
<?xpacket end="w"?></metadata>
<defs>
    <style>
      .cls-1 {
        fill: #0b60c1;
      }

      .cls-2 {
        fill: #fff;
        fill-rule: evenodd;
      }
    </style>
  </defs>
  <circle class="cls-1" cx="151.5" cy="167.5" r="114.5"/>
  <path class="cls-2" d="M113.266,202.049c-2.363-2.709-4.924-5.113-6.8-7.961-1.618-2.452,1.363-3.472,2.614-4.712,25.73-25.515,51.644-50.847,77.231-76.5,4.479-4.491,5.9-.611,8.562,1.475,3.286,2.577,3.381,4.441.2,7.549-26.063,25.465-51.936,51.124-77.878,76.713C116.207,199.58,115.111,200.439,113.266,202.049ZM211.9,130.177c-1.883,2.089-2.643,3.023-3.494,3.863-26.2,25.879-52.475,51.68-78.535,77.7-3.8,3.792-5.229.547-7.04-1.449-1.795-1.977-6.077-3.249-1.874-7.36,26.471-25.892,52.759-51.969,79.141-77.951,1.009-.994,1.882-3.079,3.925-1.393C206.638,125.739,209.222,127.931,211.9,130.177Zm-90.046,87.906L86.171,234,85,232.816c4.974-10.92,9.977-21.826,14.9-32.77,0.989-2.2,2-1.422,3.145-.307C109.128,205.668,115.213,211.607,121.855,218.083Zm73.631-112.726c7.523-4.625,13.6-4.473,18.677.242a14.857,14.857,0,0,1,3.664,16.7c-1.088,2.42-2.176,3.335-4.318,1.184C207.517,117.466,201.532,111.439,195.486,105.357Z"/>
</svg>
